<svg xmlns="http://www.w3.org/2000/svg" width="122" height="38" viewBox="0 0 122 38">
  <defs>
    <style>
      .cls-1 {
        fill: #fff;
      }

      .cls-2 {
        fill: none;
      }
    </style>
  </defs>
  <g id="组_1" data-name="组 1" transform="translate(-754 -160)">
    <g id="组_202" data-name="组 202" transform="translate(757 160.004)">
      <path id="路径_1" data-name="路径 1" class="cls-1" d="M-979.825,231.391h0a65.856,65.856,0,0,0-34.839,6.114c-12.853,6.391-26.37,9.546-38.811,9.1-17.769-.642-33.583-7.312-43.4-15.408h0C-1045.041,274.813-981.6,232.423-979.825,231.391Z" transform="translate(1096.879 -213.963)"/>
      <g id="组_2" data-name="组 2" transform="translate(83.522 0)">
        <g id="组_1-2" data-name="组 1" transform="translate(0 0)">
          <path id="路径_2" data-name="路径 2" class="cls-1" d="M-621.882,142.072h-2a.92.92,0,0,0-1.014.774l-1.122,4.125h1.94a.9.9,0,0,0,.971-.791l.352-1.178h5.506c.492,0,.762-.169.762-.672v-1.065h-5.749Z" transform="translate(633.226 -142.072)"/>
          <path id="路径_3" data-name="路径 3" class="cls-1" d="M-550.385,197.057l-1.077,3.242h1.92a.847.847,0,0,0,.931-.646l1.07-3.227h-1.874A.863.863,0,0,0-550.385,197.057Z" transform="translate(573.034 -185.952)"/>
          <path id="路径_4" data-name="路径 4" class="cls-1" d="M-505,196.425h-1.872l1.07,3.227a.847.847,0,0,0,.931.646h1.919l-1.076-3.242A.863.863,0,0,0-505,196.425Z" transform="translate(537.035 -185.952)"/>
          <path id="路径_5" data-name="路径 5" class="cls-1" d="M-617.62,164.424l-2.239-.021a1.26,1.26,0,0,0-1.232.652l-1.4,2.186-.635-.893a1.231,1.231,0,0,0-1.207-.617h-2.274l2.673,3.76-3.177,4.957,2.436-.006a1.231,1.231,0,0,0,1.188-.664l1.219-1.943,1.409,1.981a1.207,1.207,0,0,0,1.166.632h2.323l-3.473-4.885Z" transform="translate(634.106 -160.1)"/>
          <path id="路径_6" data-name="路径 6" class="cls-1" d="M-659.473,142.73v.693h-.717l.089-.982h-1.866c-.619,0-.844.241-.89.658l-.558,6.188h1.786c.5,0,.916-.169.971-.672l.312-3.454h.873v6.386l-3.065.737a.835.835,0,0,0-.775.907V154.5l3.84-.92v2.842h2.066c.47,0,.731-.169.731-.673V142.072H-658.7C-659.286,142.072-659.473,142.313-659.473,142.73Z" transform="translate(663.416 -142.072)"/>
          <path id="路径_7" data-name="路径 7" class="cls-1" d="M-539.925,161.189h1.366c.881,0,1.167-.512,1.167-1.26v-5.24h-4.371v-1.026h-2.021c-.589,0-.776.241-.776.658v.368h-3.149c-.952,0-1.221.387-1.221,1.278v5.223h4.383v4.587h1.812a.966.966,0,0,0,.956-.9v-3.684Zm-6.471-2.463h4.91c.425,0,.661-.154.661-.609v-.965H-546.4v-.39a.431.431,0,0,1,.446-.424h6.025V159.1c0,.323-.141.437-.483.437H-546.4Z" transform="translate(570.989 -151.43)"/>
          <path id="路径_8" data-name="路径 8" class="cls-1" d="M-567.132,142.494c-1.772,0-2.4.573-2.4,2.029v12.236h2.048c.47,0,.73-.169.73-.673V144.83c0-.4.262-.6.7-.6h11.9c.471,0,.73-.169.73-.673v-1.064Z" transform="translate(587.62 -142.413)"/>
        </g>
      </g>
      <g id="组_4" data-name="组 4" transform="translate(0.474 0.231)">
        <g id="组_3" data-name="组 3" transform="translate(0)">
          <path id="路径_9" data-name="路径 9" class="cls-1" d="M-989.2,146.374h-2.39v10.557a7.079,7.079,0,0,1-2.175.432c-1.345-.015-2.075-.612-2.075-2.171V147.7c0-1-.454-1.325-1.15-1.325h-2.488v9.158c0,3.273,2.166,4.557,5.782,4.335,1.889-.116,4.239-1.068,5.654-1.226V147.834C-988.041,146.975-988.418,146.374-989.2,146.374Z" transform="translate(1017.771 -145.776)"/>
          <path id="路径_10" data-name="路径 10" class="cls-1" d="M-797.676,143.389a25.849,25.849,0,0,0-5.625.917v2.911a11.388,11.388,0,0,1,5.19-1.324c1.736.019,2.371.612,2.371,2.17v.26c-2.976-.5-8.26-.252-8.426,4.423-.121,3.406,2.363,4.59,5.235,4.653,2.644.058,4.207-1.071,6.65-.828v-8.593C-792.281,144.525-794.1,143.389-797.676,143.389Zm-2.876,9.242c.1-2.225,3.005-2.43,4.812-2.164v4.055a8.945,8.945,0,0,1-2.174.37C-799.432,154.95-800.626,154.22-800.552,152.631Z" transform="translate(860.097 -143.366)"/>
          <path id="路径_11" data-name="路径 11" class="cls-1" d="M-1082.992,143.378a10.256,10.256,0,0,0-3.16.627,7.357,7.357,0,0,0-3.45-.628,15.452,15.452,0,0,0-4.817,1.06v12.434h2.377c1.042,0,1.191-.764,1.191-1.3V146.09a4.83,4.83,0,0,1,1.31-.208c1.245.015,1.674.612,1.674,2.17v7.521c0,.81.184,1.3,1.133,1.3h2.382v-9.158a6.328,6.328,0,0,0-.18-1.587,5.006,5.006,0,0,1,1.492-.243c1.245.021,1.674.612,1.674,2.17v7.521c0,.81.184,1.3,1.133,1.3h2.438v-9.158C-1077.793,144.44-1079.593,143.308-1082.992,143.378Z" transform="translate(1094.419 -143.355)"/>
          <path id="路径_12" data-name="路径 12" class="cls-1" d="M-930.009,147.807l-1.616,3.28-1.878-3.719a1.546,1.546,0,0,0-1.579-.994h-3.029l4.507,8.731-2.266,4.6c2.6-.006,2.37,0,2.386,0a1.851,1.851,0,0,0,1.951-1.06c.391-.779,6.046-12.264,6.046-12.264h-2.54C-929.086,146.37-929.484,146.7-930.009,147.807Z" transform="translate(968.23 -145.776)"/>
          <path id="路径_13" data-name="路径 13" class="cls-1" d="M-858.821,146.374h-2.39v10.557a7.072,7.072,0,0,1-2.175.432c-1.345-.015-2.076-.612-2.076-2.171V147.7c0-1-.454-1.325-1.15-1.325H-869.1v9.158c0,3.273,2.167,4.557,5.783,4.335,1.888-.116,4.238-1.068,5.654-1.226V147.834C-857.665,146.975-858.116,146.374-858.821,146.374Z" transform="translate(912.517 -145.776)"/>
          <path id="路径_14" data-name="路径 14" class="cls-1" d="M-728.34,143.3c-1.888.116-4.239,1.068-5.654,1.226v12.265h2.255a1.152,1.152,0,0,0,1.289-1.3v-9.258a7.077,7.077,0,0,1,2.178-.433,1.917,1.917,0,0,1,2.166,2.17v7.494c0,1,.454,1.324,1.15,1.324h2.4v-9.158C-722.558,144.358-724.724,143.073-728.34,143.3Z" transform="translate(803.443 -143.271)"/>
        </g>
      </g>
    </g>
    <rect id="矩形_200" data-name="矩形 200" class="cls-2" width="122" height="38" transform="translate(754 160)"/>
  </g>
</svg>
